<svg xmlns="http://www.w3.org/2000/svg" width="50.228" height="50.311" viewBox="0 0 50.228 50.311">
  <path id="create" d="M50.765,1a1.155,1.155,0,0,0-.857.374L48.785,2.5a.907.907,0,0,0-.166.208,1.2,1.2,0,0,0,.125,1.539l2.037,2.12a1.282,1.282,0,0,1,0,1.746l-8.44,8.441A1.235,1.235,0,0,1,40.594,14.8l6.7-6.694a1.205,1.205,0,0,0,0-1.746L47,6.072a1.258,1.258,0,0,0-1.58-.166.726.726,0,0,0-.208.166L32.611,18.63a1.2,1.2,0,0,0-.374.873,1.132,1.132,0,0,0,.374.873l1.538,1.539.79.789a1.325,1.325,0,0,1,.208,1.622,1.248,1.248,0,0,1-1.912.208l-.624-.665-1.7-1.7a1.234,1.234,0,0,0-1.123-.333,1.287,1.287,0,0,0-.914.749l-2.911,7.027a1.358,1.358,0,0,0,.249,1.413,1.22,1.22,0,0,0,1.331.292l7.068-2.994a2.2,2.2,0,0,0,.416-.249l3.534-3.534,17.3-17.255a1.2,1.2,0,0,0,.375-.873,1.132,1.132,0,0,0-.375-.873l-4.2-4.158A1.259,1.259,0,0,0,50.765,1ZM11.405,3.079A5.4,5.4,0,0,0,6,8.484V45.906a5.4,5.4,0,0,0,5.405,5.405h20.79a1.247,1.247,0,1,0,0-2.495H11.405a2.893,2.893,0,0,1-2.911-2.911V8.484a2.893,2.893,0,0,1,2.911-2.911H36.353A1.225,1.225,0,0,0,37.6,4.326a1.225,1.225,0,0,0-1.247-1.247ZM52.985,15.553A1.225,1.225,0,0,0,51.737,16.8V36.342H44.669a5.4,5.4,0,0,0-5.405,5.405v8.316a1.253,1.253,0,0,0,.79,1.165,1.494,1.494,0,0,0,.457.083,1.2,1.2,0,0,0,.873-.374L53.858,38.463a1.2,1.2,0,0,0,.374-.873V16.8A1.225,1.225,0,0,0,52.985,15.553ZM44.669,38.837h5.323L41.758,47.07V41.748A2.893,2.893,0,0,1,44.669,38.837Z" transform="translate(-6 -1)" fill="#5c6761"/>
</svg>
