<svg xmlns="http://www.w3.org/2000/svg" viewBox="0 0 64 64"><linearGradient id="YCJfpWH1rS~DAr6KkB1Maa" x1="25" x2="25" y1="2478.588" y2="2471.588" gradientTransform="matrix(1 0 0 -1 0 2502)" gradientUnits="userSpaceOnUse"><stop offset="0" stop-color="#6dc7ff"/><stop offset="1" stop-color="#e6abff"/></linearGradient><circle cx="25" cy="26.91" r="3" fill="url(#YCJfpWH1rS~DAr6KkB1Maa)"/><linearGradient id="YCJfpWH1rS~DAr6KkB1Mab" x1="39" x2="39" y1="2478.588" y2="2471.588" gradientTransform="matrix(1 0 0 -1 0 2502)" gradientUnits="userSpaceOnUse"><stop offset="0" stop-color="#6dc7ff"/><stop offset="1" stop-color="#e6abff"/></linearGradient><circle cx="39" cy="26.91" r="3" fill="url(#YCJfpWH1rS~DAr6KkB1Mab)"/><linearGradient id="YCJfpWH1rS~DAr6KkB1Mac" x1="32" x2="32" y1="32.66" y2="40.456" gradientUnits="userSpaceOnUse"><stop offset="0" stop-color="#6dc7ff"/><stop offset="1" stop-color="#e6abff"/></linearGradient><path fill="url(#YCJfpWH1rS~DAr6KkB1Mac)" d="M36.002,34H28c-0.552,0-1,0.448-1,1v0.809c0,2.403,1.609,4.612,3.965,5.085C34.179,41.539,37,39.097,37,35.998v-1C37,34.447,36.553,34,36.002,34z"/><linearGradient id="YCJfpWH1rS~DAr6KkB1Mad" x1="32" x2="32" y1="7" y2="58.202" gradientUnits="userSpaceOnUse"><stop offset="0" stop-color="#1a6dff"/><stop offset="1" stop-color="#c822ff"/></linearGradient><path fill="url(#YCJfpWH1rS~DAr6KkB1Mad)" d="M32,6c-11.579,0-21,9.42-21,21v25.828c0,2.646,1.982,4.907,4.513,5.149 c1.406,0.133,2.812-0.332,3.851-1.277C20.403,55.754,21,54.405,21,53v-1c0-1.654,1.346-3,3-3s3,1.346,3,3v0.828 c0,2.646,1.982,4.907,4.513,5.149c1.409,0.133,2.812-0.332,3.851-1.277C36.403,55.754,37,54.405,37,53v-1c0-1.654,1.346-3,3-3 s3,1.346,3,3v0.828c0,2.646,1.982,4.907,4.513,5.149C47.672,57.992,47.831,58,47.989,58c1.243,0,2.452-0.461,3.374-1.299 C52.403,55.754,53,54.405,53,53V27C53,15.42,43.579,6,32,6z M51,53c0,0.843-0.358,1.653-0.982,2.22 c-0.634,0.576-1.458,0.851-2.315,0.766C46.187,55.841,45,54.454,45,52.828V52c0-2.757-2.243-5-5-5s-5,2.243-5,5v1 c0,0.843-0.358,1.653-0.982,2.22c-0.634,0.576-1.455,0.851-2.315,0.766C30.187,55.841,29,54.454,29,52.828V52c0-2.757-2.243-5-5-5 s-5,2.243-5,5v1c0,0.843-0.358,1.653-0.982,2.22c-0.634,0.576-1.456,0.851-2.315,0.766C14.187,55.841,13,54.454,13,52.828V27 c0-10.477,8.523-19,19-19s19,8.523,19,19V53z"/><linearGradient id="YCJfpWH1rS~DAr6KkB1Mae" x1="42.274" x2="42.274" y1="7" y2="58.202" gradientUnits="userSpaceOnUse"><stop offset="0" stop-color="#1a6dff"/><stop offset="1" stop-color="#c822ff"/></linearGradient><path fill="url(#YCJfpWH1rS~DAr6KkB1Mae)" d="M37.312,10.847l-0.625,1.9c4.286,1.408,7.679,4.632,9.308,8.844l1.865-0.722 C46.015,16.096,42.17,12.443,37.312,10.847z"/></svg>