<svg xmlns="http://www.w3.org/2000/svg" width="42.325" height="50.311" viewBox="0 0 42.325 50.311">
  <path id="papers" d="M16.191,1A5.18,5.18,0,0,0,11,6.191V46.12a5.18,5.18,0,0,0,5.191,5.191A37.166,37.166,0,0,0,53.325,14.177V6.191A5.18,5.18,0,0,0,48.134,1Zm0,2.4H48.134a2.778,2.778,0,0,1,2.8,2.8v7.986A34.764,34.764,0,0,1,16.191,48.915a2.778,2.778,0,0,1-2.8-2.8V6.191A2.778,2.778,0,0,1,16.191,3.4Zm9.982,9.583a1.2,1.2,0,0,0,0,2.4H38.152a1.2,1.2,0,0,0,0-2.4ZM22.18,24.958a1.2,1.2,0,0,0,0,2.4H42.145a1.2,1.2,0,1,0,0-2.4Zm0,7.986a1.2,1.2,0,1,0,0,2.4H38.152a1.2,1.2,0,0,0,0-2.4Zm29.947,1.2a1.177,1.177,0,0,0-1.2,1.2V46.12a2.778,2.778,0,0,1-2.8,2.8H36.156a1.2,1.2,0,1,0,0,2.4H48.134a5.18,5.18,0,0,0,5.191-5.191V35.339A1.177,1.177,0,0,0,52.127,34.141Z" transform="translate(-11 -1)" fill="#5c6761"/>
</svg>
