<svg xmlns="http://www.w3.org/2000/svg" width="50.311" height="50.311" viewBox="0 0 50.311 50.311">
  <g id="qr_code" data-name="qr code" transform="translate(-1 -1)">
    <path id="Caminho_1" data-name="Caminho 1" d="M107.18,13.378a1.177,1.177,0,0,1-1.2-1.2V6.191a2.778,2.778,0,0,0-2.8-2.8H97.2A1.177,1.177,0,0,1,96,2.2,1.177,1.177,0,0,1,97.2,1h5.989a5.18,5.18,0,0,1,5.191,5.191V12.18A1.176,1.176,0,0,1,107.18,13.378Z" transform="translate(-57.067)" fill="#5c6761"/>
    <path id="Caminho_2" data-name="Caminho 2" d="M2.2,13.378A1.177,1.177,0,0,1,1,12.18V6.191A5.18,5.18,0,0,1,6.191,1H12.18a1.177,1.177,0,0,1,1.2,1.2,1.177,1.177,0,0,1-1.2,1.2H6.191a2.778,2.778,0,0,0-2.8,2.8V12.18A1.177,1.177,0,0,1,2.2,13.378Z" fill="#5c6761"/>
    <path id="Caminho_3" data-name="Caminho 3" d="M12.18,108.378H6.191A5.18,5.18,0,0,1,1,103.187V97.2A1.177,1.177,0,0,1,2.2,96a1.177,1.177,0,0,1,1.2,1.2v5.989a2.778,2.778,0,0,0,2.8,2.8H12.18a1.2,1.2,0,1,1,0,2.4Z" transform="translate(0 -57.067)" fill="#5c6761"/>
    <path id="Caminho_4" data-name="Caminho 4" d="M103.187,108.378H97.2a1.2,1.2,0,0,1,0-2.4h5.989a2.778,2.778,0,0,0,2.8-2.8V97.2a1.2,1.2,0,0,1,2.4,0v5.989A5.18,5.18,0,0,1,103.187,108.378Z" transform="translate(-57.067 -57.067)" fill="#5c6761"/>
    <path id="Caminho_5" data-name="Caminho 5" d="M90.184,91.382H82.2a1.177,1.177,0,0,1-1.2-1.2V82.2A1.177,1.177,0,0,1,82.2,81h7.986a1.177,1.177,0,0,1,1.2,1.2v7.986A1.177,1.177,0,0,1,90.184,91.382Zm-6.788-2.4h5.59V83.4H83.4Z" transform="translate(-48.056 -48.056)" fill="#5c6761"/>
    <path id="Caminho_6" data-name="Caminho 6" d="M56.2,85.375a1.177,1.177,0,0,1-1.2-1.2V80.184a1.177,1.177,0,0,1,1.2-1.2h3.594V72.2a1.2,1.2,0,1,1,2.4,0v7.986a1.177,1.177,0,0,1-1.2,1.2H57.4v2.8A1.177,1.177,0,0,1,56.2,85.375Z" transform="translate(-32.438 -42.049)" fill="#5c6761"/>
    <path id="Caminho_7" data-name="Caminho 7" d="M90.184,31.382H82.2a1.177,1.177,0,0,1-1.2-1.2V22.2A1.177,1.177,0,0,1,82.2,21h7.986a1.177,1.177,0,0,1,1.2,1.2v7.986A1.177,1.177,0,0,1,90.184,31.382Zm-6.788-2.4h5.59V23.4H83.4Z" transform="translate(-48.056 -12.014)" fill="#5c6761"/>
    <path id="Caminho_8" data-name="Caminho 8" d="M30.184,31.382H22.2a1.176,1.176,0,0,1-1.2-1.2V22.2A1.176,1.176,0,0,1,22.2,21h7.986a1.176,1.176,0,0,1,1.2,1.2v7.986A1.177,1.177,0,0,1,30.184,31.382Zm-6.788-2.4h5.59V23.4H23.4Z" transform="translate(-12.014 -12.014)" fill="#5c6761"/>
    <path id="Caminho_9" data-name="Caminho 9" d="M24.194,63.4h-2a1.2,1.2,0,0,1,0-2.4h2a1.2,1.2,0,0,1,0,2.4Z" transform="translate(-12.014 -36.042)" fill="#5c6761"/>
    <path id="Caminho_10" data-name="Caminho 10" d="M50.792,39.368H47.2a1.2,1.2,0,1,1,0-2.4h2.4V30.184a1.177,1.177,0,0,1,1.2-1.2h3.594V22.2a1.2,1.2,0,0,1,2.4,0v7.986a1.177,1.177,0,0,1-1.2,1.2H51.989V38.17A1.177,1.177,0,0,1,50.792,39.368Z" transform="translate(-27.032 -12.014)" fill="#5c6761"/>
    <path id="Caminho_11" data-name="Caminho 11" d="M87.18,62.187H81.989a1.177,1.177,0,0,1-1.2-1.2V57.4H77.2a1.2,1.2,0,1,1,0-2.4h4.792a1.177,1.177,0,0,1,1.2,1.2v3.594H87.18a1.2,1.2,0,0,1,0,2.4Z" transform="translate(-45.053 -32.438)" fill="#5c6761"/>
    <path id="Caminho_12" data-name="Caminho 12" d="M30.184,91.382H22.2a1.177,1.177,0,0,1-1.2-1.2V82.2A1.177,1.177,0,0,1,22.2,81h7.986a1.177,1.177,0,0,1,1.2,1.2v7.986A1.177,1.177,0,0,1,30.184,91.382Zm-6.788-2.4h5.59V83.4H23.4Z" transform="translate(-12.014 -48.056)" fill="#5c6761"/>
  </g>
</svg>
